# xmcd
#
# Track frame offsets:
#	300
#	15405
#	34055
#	50897
#	71534
#	86559
#	107352
#	122883
#	141653
#	158076
#	177082
#	194810
#	209760
#	225430
#	243394
#	261488
#	279173
#	294146
#
# Disc length: 4133 seconds
#
# Revision: 8
# Processed by: cddbd v1.5.2PL0 Copyright (c) Steve Scherf et al.
# Submitted via: audiograbber 1.83.01
#
DISCID=0b102112
DTITLE=Various Artist - SFG349
DYEAR=2015
DGENRE=Karaoke
TTITLE0=Meghan Trainor - Dear future husband
TTITLE1=Chris Brown and Tyga - Ayo
TTITLE2=Charlie XCX f. Rita Ora - Doing it
TTITLE3=Sia - Elastic heart
TTITLE4=OMI - Cheerleader
TTITLE5=G.R.L - Lighthouse
TTITLE6=Bakemat - Teach me
TTITLE7=Calvin Harris f. Haim - Pray to God
TTITLE8=Kelly Clarkson - Heartbeat song
TTITLE9=Maroon 5 - Sugar
TTITLE10=Karen Harding - Say something
TTITLE11=Sigma f. Labrinth - Higher
TTITLE12=Rihanna, Kanye West and Paul McCartney - Fourfiveseconds
TTITLE13=Giorgio Moroder f. Kylie Minogue - Right here, right now
TTITLE14=Nick Jonas - Jealous
TTITLE15=Cheryl - Only human
TTITLE16=Bars and Melody - Keep smiling
TTITLE17=Fall Out Boy - Immortals
EXTD=
EXTT0=
EXTT1=
EXTT2=
EXTT3=
EXTT4=
EXTT5=
EXTT6=
EXTT7=
EXTT8=
EXTT9=
EXTT10=
EXTT11=
EXTT12=
EXTT13=
EXTT14=
EXTT15=
EXTT16=
EXTT17=
PLAYORDER=
